<svg id="Layer_1" data-name="Layer 1" xmlns="http://www.w3.org/2000/svg" viewBox="0 0 870.47 247.14"><title>csh_mod</title><path d="M512,238.43H343.72a3.71,3.71,0,0,0-3.71,3.71V410.45a3.71,3.71,0,0,0,3.71,3.71H512a3.71,3.71,0,0,0,3.71-3.71V242.14A3.71,3.71,0,0,0,512,238.43ZM479.22,376.12a50.16,50.16,0,0,1-9.45,7.31,67,67,0,0,1-14.17,6.42,60.63,60.63,0,0,1-19.16,2.76,62.28,62.28,0,0,1-27-5.7,66.11,66.11,0,0,1-37.88-59.54,74,74,0,0,1,4.81-27A63.87,63.87,0,0,1,389.82,279a60.17,60.17,0,0,1,20.77-14,69.6,69.6,0,0,1,26.74-5,65.47,65.47,0,0,1,24.51,4.81,45.77,45.77,0,0,1,19.7,14.8l-14.26,10.87a35.31,35.31,0,0,0-13.55-10.7A40.37,40.37,0,0,0,436.79,276a45.41,45.41,0,0,0-19.34,4,44.51,44.51,0,0,0-14.8,11,50,50,0,0,0-9.54,16.31,58.47,58.47,0,0,0-3.39,20.05,55.34,55.34,0,0,0,3.21,18.9,47.24,47.24,0,0,0,9.27,15.69,43.37,43.37,0,0,0,14.8,10.7,47.79,47.79,0,0,0,19.79,3.92,39.32,39.32,0,0,0,19.07-4.46,40.94,40.94,0,0,0,13.9-12.48l14.44,10.87A57.75,57.75,0,0,1,479.22,376.12Z" transform="translate(-176.26 -238.43)"/><path d="M700.34,238.43H532a3.71,3.71,0,0,0-3.71,3.71V410.45a3.71,3.71,0,0,0,3.71,3.71H700.34a3.71,3.71,0,0,0,3.71-3.71V242.14A3.71,3.71,0,0,0,700.34,238.43ZM655.06,370a36.38,36.38,0,0,1-9.36,12.3,41.51,41.51,0,0,1-13.9,7.66,53.77,53.77,0,0,1-17.11,2.67,62.23,62.23,0,0,1-23-4.28,37.79,37.79,0,0,1-17.29-13.19L588.48,363a28.1,28.1,0,0,0,11.85,10.25,35.43,35.43,0,0,0,14.88,3.3,30.31,30.31,0,0,0,8.74-1.34,26.57,26.57,0,0,0,8.11-4,21.89,21.89,0,0,0,6-6.6,17.54,17.54,0,0,0,2.32-9.09q0-7.31-4.63-11.14a40.12,40.12,0,0,0-11.5-6.42q-6.86-2.58-15-5a60.83,60.83,0,0,1-15-6.68,36.59,36.59,0,0,1-11.5-11.5q-4.64-7.22-4.63-19.52a33.64,33.64,0,0,1,10-23.17,41.79,41.79,0,0,1,13.28-8.65q8.11-3.48,19.52-3.48a68.18,68.18,0,0,1,19.79,2.85q9.45,2.85,16.58,11.59l-13.9,12.66a23.1,23.1,0,0,0-9.09-8,28.78,28.78,0,0,0-13.37-3,32.4,32.4,0,0,0-11.85,1.87,21.27,21.27,0,0,0-7.58,4.81,17,17,0,0,0-4,6.33,19.37,19.37,0,0,0-1.16,6.24q0,8,4.63,12.3a36,36,0,0,0,11.5,7,138.41,138.41,0,0,0,15,4.81,64.14,64.14,0,0,1,15,6,34.86,34.86,0,0,1,11.5,10.34q4.63,6.51,4.63,17.91A37.72,37.72,0,0,1,655.06,370Z" transform="translate(-176.26 -238.43)"/><path d="M889,238.43H720.7a3.71,3.71,0,0,0-3.71,3.71V410.45a3.71,3.71,0,0,0,3.71,3.71H889a3.71,3.71,0,0,0,3.71-3.71V242.14A3.71,3.71,0,0,0,889,238.43Zm-34.33,151H837.57V331.64H772.15V389.4H755V263.19h17.11V315.6h65.42V263.19h17.11V389.4Z" transform="translate(-176.26 -238.43)"/><path d="M206.48,453.11V456a26.07,26.07,0,0,0-12.29-3.33,14.48,14.48,0,0,0-10.73,4.37,14.89,14.89,0,0,0-4.32,10.9,14.6,14.6,0,0,0,4.34,10.88,15.14,15.14,0,0,0,11.08,4.27,26.4,26.4,0,0,0,12.26-3.53v2.76a26,26,0,0,1-12.21,3.23,18.15,18.15,0,0,1-13.11-5,17.66,17.66,0,0,1,.11-25.23,17.89,17.89,0,0,1,12.75-5.08A29,29,0,0,1,206.48,453.11Z" transform="translate(-176.26 -238.43)"/><path d="M238.86,450.22a18,18,0,0,1,13,5.14,17.43,17.43,0,0,1,0,25.06,18.85,18.85,0,0,1-25.88,0,17.49,17.49,0,0,1,0-25.06A17.83,17.83,0,0,1,238.86,450.22ZM239,483.1a14.82,14.82,0,0,0,10.87-4.4,15.4,15.4,0,0,0,0-21.61,14.82,14.82,0,0,0-10.87-4.4,15,15,0,0,0-10.94,4.4,15.28,15.28,0,0,0,0,21.61A15,15,0,0,0,239,483.1Z" transform="translate(-176.26 -238.43)"/><path d="M289.52,466.67l13.09-16h2.7v34.46h-2.69V454.56l-13.11,16.11-13.16-16.11v30.57h-2.66V450.66h2.67Z" transform="translate(-176.26 -238.43)"/><path d="M323.29,450.66h9.5q5.45,0,8.35,2.44a8.25,8.25,0,0,1,2.9,6.66,8.42,8.42,0,0,1-2.92,6.76q-2.92,2.49-8.57,2.49H326v16.11h-2.66V450.66Zm2.66,2.22V466.8h6.41q4.32,0,6.56-1.83a7,7,0,0,0,0-10.21,9.42,9.42,0,0,0-6.29-1.87H326Z" transform="translate(-176.26 -238.43)"/><path d="M384.61,450.66h2.66v18.8q0,7.72-4,11.92a15.05,15.05,0,0,1-20.8,0q-4-4.14-4-11.35V450.66h2.69V470q0,6.17,3.27,9.65a12,12,0,0,0,16.95,0q3.27-3.51,3.27-10V450.66Z" transform="translate(-176.26 -238.43)"/><path d="M429.32,450.66v2.22H416.4v32.24h-2.69V452.88H400.78v-2.22h28.54Z" transform="translate(-176.26 -238.43)"/><path d="M462.49,450.66v2.22H446.36v13.79h15.72v2.24H446.36v14h16.53v2.22H443.7V450.66h18.8Z" transform="translate(-176.26 -238.43)"/><path d="M478.52,450.66h8.83q5.55,0,8.49,2.41a8,8,0,0,1,2.94,6.5q0,6-6.56,8.39,1.7,0.81,4.59,5.26l7.8,11.92h-3.15l-6-9.45q-3-4.74-4.69-5.91a8.55,8.55,0,0,0-4.91-1.17h-4.66v16.53h-2.66V450.66Zm2.66,2.22v13.49h5.72q4.37,0,6.67-1.76a6.49,6.49,0,0,0,0-10q-2.34-1.78-6.73-1.78h-5.62Z" transform="translate(-176.26 -238.43)"/><path d="M520.05,467.91a6.21,6.21,0,1,1,1.83,4.33A5.92,5.92,0,0,1,520.05,467.91Z" transform="translate(-176.26 -238.43)"/><path d="M569.16,452.39v2.94q-4.49-2.64-7.72-2.64a7.45,7.45,0,0,0-5.19,1.89,6.06,6.06,0,0,0-2.08,4.67,5.76,5.76,0,0,0,1.23,3.6q1.23,1.6,5.16,3.08a48.82,48.82,0,0,1,5.72,2.47,8.73,8.73,0,0,1,3.06,2.86,8.56,8.56,0,0,1,1.26,4.86,8.85,8.85,0,0,1-2.91,6.71,10,10,0,0,1-7.1,2.74,16,16,0,0,1-8.83-3v-3.13q5,3.67,8.68,3.68a7.26,7.26,0,0,0,5.17-2,6.67,6.67,0,0,0,.8-8.83q-1.31-1.76-5.3-3.3a52.38,52.38,0,0,1-5.71-2.47,8.42,8.42,0,0,1-2.91-2.68,7.73,7.73,0,0,1-1.2-4.48,8.47,8.47,0,0,1,2.91-6.47,10,10,0,0,1,7-2.68A16.37,16.37,0,0,1,569.16,452.39Z" transform="translate(-176.26 -238.43)"/><path d="M615.46,453.11V456a26.07,26.07,0,0,0-12.29-3.33,14.48,14.48,0,0,0-10.73,4.37,14.89,14.89,0,0,0-4.32,10.9,14.6,14.6,0,0,0,4.34,10.88,15.14,15.14,0,0,0,11.08,4.27,26.4,26.4,0,0,0,12.26-3.53v2.76a26,26,0,0,1-12.21,3.23,18.15,18.15,0,0,1-13.11-5,17.66,17.66,0,0,1,.11-25.23,17.89,17.89,0,0,1,12.75-5.08A29,29,0,0,1,615.46,453.11Z" transform="translate(-176.26 -238.43)"/><path d="M633.68,450.66v34.46H631V450.66h2.66Z" transform="translate(-176.26 -238.43)"/><path d="M670.53,450.66v2.22H654.39v13.79h15.72v2.24H654.39v14h16.53v2.22H651.73V450.66h18.8Z" transform="translate(-176.26 -238.43)"/><path d="M717.56,450.66v34.46h-2.19L689.17,455v30.12H686.5V450.66h2.26l26.14,30.12V450.66h2.66Z" transform="translate(-176.26 -238.43)"/><path d="M764.3,453.11V456A26.07,26.07,0,0,0,752,452.69a14.48,14.48,0,0,0-10.73,4.37A14.89,14.89,0,0,0,737,468a14.6,14.6,0,0,0,4.34,10.88,15.14,15.14,0,0,0,11.08,4.27,26.4,26.4,0,0,0,12.26-3.53v2.76a26,26,0,0,1-12.21,3.23,18.15,18.15,0,0,1-13.11-5,17.66,17.66,0,0,1,.11-25.23,17.89,17.89,0,0,1,12.75-5.08A29,29,0,0,1,764.3,453.11Z" transform="translate(-176.26 -238.43)"/><path d="M798.75,450.66v2.22H782.62v13.79h15.72v2.24H782.62v14h16.53v2.22H780V450.66h18.8Z" transform="translate(-176.26 -238.43)"/><path d="M817.25,467.91a6.21,6.21,0,1,1,1.83,4.33A5.92,5.92,0,0,1,817.25,467.91Z" transform="translate(-176.26 -238.43)"/><path d="M878.49,450.66v34.46H875.8V468.8h-23v16.33h-2.66V450.66h2.66v15.91h23V450.66h2.69Z" transform="translate(-176.26 -238.43)"/><path d="M913.37,450.22a18,18,0,0,1,13,5.14,17.43,17.43,0,0,1,0,25.06,18.85,18.85,0,0,1-25.88,0,17.49,17.49,0,0,1,0-25.06A17.83,17.83,0,0,1,913.37,450.22Zm0.1,32.88a14.82,14.82,0,0,0,10.87-4.4,15.4,15.4,0,0,0,0-21.61,14.82,14.82,0,0,0-10.87-4.4,15,15,0,0,0-10.94,4.4,15.28,15.28,0,0,0,0,21.61A15,15,0,0,0,913.46,483.1Z" transform="translate(-176.26 -238.43)"/><path d="M973.7,450.66h2.66v18.8q0,7.72-4,11.92a15.05,15.05,0,0,1-20.8,0q-4-4.14-4-11.35V450.66h2.69V470q0,6.17,3.27,9.65a12,12,0,0,0,16.95,0q3.27-3.51,3.27-10V450.66Z" transform="translate(-176.26 -238.43)"/><path d="M1009.88,452.39v2.94q-4.49-2.64-7.72-2.64a7.45,7.45,0,0,0-5.19,1.89,6.06,6.06,0,0,0-2.08,4.67,5.76,5.76,0,0,0,1.23,3.6q1.23,1.6,5.16,3.08a48.82,48.82,0,0,1,5.72,2.47,8.73,8.73,0,0,1,3.06,2.86,8.56,8.56,0,0,1,1.26,4.86,8.85,8.85,0,0,1-2.91,6.71,10,10,0,0,1-7.1,2.74,16,16,0,0,1-8.83-3v-3.13q5,3.67,8.68,3.68a7.26,7.26,0,0,0,5.17-2,6.67,6.67,0,0,0,.8-8.83q-1.31-1.76-5.3-3.3a52.38,52.38,0,0,1-5.71-2.47,8.42,8.42,0,0,1-2.91-2.68,7.73,7.73,0,0,1-1.2-4.48,8.47,8.47,0,0,1,2.91-6.47,10,10,0,0,1,7-2.68A16.37,16.37,0,0,1,1009.88,452.39Z" transform="translate(-176.26 -238.43)"/><path d="M1046.33,450.66v2.22H1030.2v13.79h15.72v2.24H1030.2v14h16.53v2.22h-19.19V450.66h18.8Z" transform="translate(-176.26 -238.43)"/><path d="M271,392.87h13.79V397h-9.32v3.79h8.8v4.13h-8.8V409h9.84v4.13H271v-20.3Z" transform="translate(-176.26 -238.43)"/><path d="M298.93,397.83a3.19,3.19,0,0,0-1.48-1,5.28,5.28,0,0,0-1.76-.33,4.63,4.63,0,0,0-1,.11,3.88,3.88,0,0,0-1,.36,2.13,2.13,0,0,0-.75.65,1.63,1.63,0,0,0-.29,1,1.62,1.62,0,0,0,.69,1.41,6.48,6.48,0,0,0,1.73.83q1,0.35,2.25.69a9.28,9.28,0,0,1,2.25,1,5.34,5.34,0,0,1,1.73,1.69A5.16,5.16,0,0,1,302,407a6.53,6.53,0,0,1-.63,3,6,6,0,0,1-1.71,2.09,7.25,7.25,0,0,1-2.49,1.23,11,11,0,0,1-3,.4,10.85,10.85,0,0,1-3.67-.6,9.19,9.19,0,0,1-3.15-1.95l3.18-3.5a4.63,4.63,0,0,0,1.73,1.42,5,5,0,0,0,2.17.5,4.87,4.87,0,0,0,1.1-.13,3.6,3.6,0,0,0,1-.39,2.17,2.17,0,0,0,.72-0.66,1.65,1.65,0,0,0,.27-0.95,1.72,1.72,0,0,0-.7-1.45,6.47,6.47,0,0,0-1.76-.9q-1.06-.37-2.29-0.75a10.3,10.3,0,0,1-2.29-1,5.52,5.52,0,0,1-1.76-1.66A4.76,4.76,0,0,1,288,399a6.1,6.1,0,0,1,.65-2.87A6.24,6.24,0,0,1,290.4,394a7.5,7.5,0,0,1,2.48-1.25,10.18,10.18,0,0,1,2.9-.41,11.36,11.36,0,0,1,3.33.49,7.66,7.66,0,0,1,2.9,1.63Z" transform="translate(-176.26 -238.43)"/><path d="M309.28,396.83h-5.79v-4h16.06v4h-5.79v16.35h-4.47V396.83Z" transform="translate(-176.26 -238.43)"/><path d="M321.35,410.71a2.67,2.67,0,0,1,.2-1,2.53,2.53,0,0,1,1.4-1.41,2.75,2.75,0,0,1,2.06,0,2.53,2.53,0,0,1,1.41,1.41,2.76,2.76,0,0,1,0,2.06,2.54,2.54,0,0,1-1.41,1.4,2.75,2.75,0,0,1-2.06,0,2.53,2.53,0,0,1-1.4-1.4A2.68,2.68,0,0,1,321.35,410.71Z" transform="translate(-176.26 -238.43)"/><path d="M910.41,398.23l-4.16,3.66L903.76,399l6.77-5.71h4.1V414h-4.22V398.23Z" transform="translate(-176.26 -238.43)"/><path d="M928.24,406.63q-0.35.09-.7,0.15a4.45,4.45,0,0,1-.73.06,6.57,6.57,0,0,1-2.67-.53,6.19,6.19,0,0,1-2.05-1.44,6.42,6.42,0,0,1-1.32-2.15,7.47,7.47,0,0,1-.47-2.65,6.77,6.77,0,0,1,2.24-5.16,7.41,7.41,0,0,1,2.45-1.45,9.27,9.27,0,0,1,6.08,0,7.38,7.38,0,0,1,2.46,1.45,6.76,6.76,0,0,1,2.24,5.16,9.4,9.4,0,0,1-.21,2,10.6,10.6,0,0,1-.54,1.74,11.2,11.2,0,0,1-.79,1.57l-1,1.54L928.74,414h-5.36Zm-3.54-6.39a3.16,3.16,0,0,0,.92,2.33,3.62,3.62,0,0,0,4.83,0,3.4,3.4,0,0,0,0-4.66,3.63,3.63,0,0,0-4.83,0A3.16,3.16,0,0,0,924.7,400.25Z" transform="translate(-176.26 -238.43)"/><path d="M948,397.35H937.73v-4h15.17v3.87L944.62,414h-5.13Z" transform="translate(-176.26 -238.43)"/><path d="M962.4,400.72l0.7-.15a4.45,4.45,0,0,1,.73-0.06,6.55,6.55,0,0,1,2.67.53,6.15,6.15,0,0,1,2.05,1.43,6.42,6.42,0,0,1,1.32,2.15,7.47,7.47,0,0,1,.47,2.65,6.76,6.76,0,0,1-2.24,5.16,7.33,7.33,0,0,1-2.46,1.45,9.27,9.27,0,0,1-6.08,0,7.36,7.36,0,0,1-2.45-1.45,6.82,6.82,0,0,1-1.64-2.24,6.89,6.89,0,0,1-.6-2.91,9.32,9.32,0,0,1,.21-2,10.51,10.51,0,0,1,.54-1.74,11.26,11.26,0,0,1,.79-1.57q0.45-.75,1-1.54l4.54-7.09h5.36Zm3.54,6.39a3.16,3.16,0,0,0-.92-2.33,3.62,3.62,0,0,0-4.83,0,3.4,3.4,0,0,0,0,4.66,3.63,3.63,0,0,0,4.83,0A3.16,3.16,0,0,0,965.94,407.1Z" transform="translate(-176.26 -238.43)"/></svg>